<?xml version="1.0" standalone="no"?>
<!DOCTYPE svg PUBLIC "-//W3C//DTD SVG 20010904//EN"
 "http://www.w3.org/TR/2001/REC-SVG-20010904/DTD/svg10.dtd">
<svg version="1.0" xmlns="http://www.w3.org/2000/svg"
 width="16.000000pt" height="16.000000pt" viewBox="0 0 16.000000 16.000000"
 preserveAspectRatio="xMidYMid meet">
<metadata>
Created by potrace 1.11, written by Peter Selinger 2001-2013
</metadata>
<g transform="translate(0.000000,16.000000) scale(0.003125,-0.003125)"
fill="#000000" stroke="none">
<path d="M482 4490 c-23 -10 -54 -32 -68 -47 -53 -56 -56 -76 -56 -363 0 -189
-3 -269 -11 -279 -8 -10 -9 -13 -1 -8 9 5 12 -147 12 -593 0 -456 -2 -599 -11
-593 -9 5 -9 3 0 -8 16 -20 17 -242 0 -233 -9 5 -8 3 1 -7 16 -17 16 -101 0
-118 -8 -8 -8 -11 -2 -8 17 10 17 -332 1 -352 -8 -10 -8 -13 -1 -8 9 5 12
-133 12 -533 0 -297 3 -549 7 -560 4 -12 1 -28 -7 -38 -12 -15 -11 -16 5 -3 9
7 17 9 17 4 0 -6 14 -27 30 -48 17 -21 30 -35 30 -31 0 3 18 -5 41 -20 23 -14
39 -22 36 -17 -3 4 33 7 79 5 61 -3 82 -7 78 -15 -5 -8 -2 -8 7 0 15 15 123
18 115 4 -3 -5 2 -15 12 -22 15 -12 16 -12 5 2 -18 23 -7 29 54 29 40 0 52 -3
47 -12 -6 -10 -4 -10 7 0 19 17 243 17 233 0 -6 -10 -4 -11 7 0 15 14 123 17
115 3 -3 -5 2 -15 12 -22 15 -12 16 -12 5 2 -18 23 -7 29 54 29 40 0 52 -3 47
-12 -6 -10 -4 -10 7 0 19 17 243 17 233 0 -6 -10 -4 -10 7 -1 15 15 123 18
115 4 -3 -5 2 -15 12 -22 15 -12 16 -12 5 2 -18 23 -7 29 54 29 41 0 52 -3 47
-13 -6 -9 -5 -9 7 0 21 17 722 17 713 0 -5 -8 -3 -8 7 0 15 15 123 18 115 4
-3 -5 2 -15 12 -22 15 -12 16 -12 5 2 -18 23 -7 29 54 29 40 0 52 -3 47 -12
-6 -10 -4 -10 7 -1 19 18 243 18 233 1 -6 -10 -4 -10 7 -1 15 15 123 18 115 4
-3 -5 2 -15 12 -22 15 -12 16 -12 5 2 -18 23 -7 29 54 29 40 0 52 -3 47 -12
-6 -10 -4 -10 7 -1 19 18 243 18 233 1 -6 -10 -4 -10 7 -1 15 15 123 18 115 4
-3 -5 2 -15 12 -22 15 -12 16 -12 5 2 -18 23 -7 29 54 29 41 0 52 -3 47 -12
-6 -10 -5 -10 7 -1 10 8 126 12 409 13 471 2 431 0 454 22 22 20 38 15 30 -10
-5 -14 -4 -14 4 -2 7 9 7 18 1 26 -7 8 -2 18 15 32 14 10 23 22 19 25 -3 4 2
9 11 13 9 3 13 10 10 15 -3 5 -2 9 3 9 4 0 9 24 9 53 3 90 5 252 4 262 -1 14
0 613 1 622 1 5 1 13 0 18 -2 11 -2 610 0 622 1 5 1 13 0 18 -2 11 -2 610 0
622 1 5 1 13 0 18 -2 11 -2 610 0 622 1 5 1 13 0 18 -5 29 -1 627 4 634 3 5 1
12 -5 16 -6 4 -8 11 -4 16 3 5 -2 34 -10 63 -19 66 -74 118 -141 135 -32 8
-616 11 -2067 11 -1974 -1 -2024 -1 -2066 -20z"/>
<path d="M575 611 c-3 -5 -2 -12 3 -15 5 -3 9 1 9 9 0 17 -3 19 -12 6z"/>
<path d="M710 606 c0 -2 7 -7 16 -10 8 -3 12 -2 9 4 -6 10 -25 14 -25 6z"/>
<path d="M870 601 c0 -6 4 -13 10 -16 6 -3 7 1 4 9 -7 18 -14 21 -14 7z"/>
<path d="M956 602 c-3 -5 1 -9 9 -9 8 0 12 4 9 9 -3 4 -7 8 -9 8 -2 0 -6 -4
-9 -8z"/>
<path d="M1196 602 c-3 -5 1 -9 9 -9 8 0 12 4 9 9 -3 4 -7 8 -9 8 -2 0 -6 -4
-9 -8z"/>
<path d="M1350 601 c0 -6 4 -13 10 -16 6 -3 7 1 4 9 -7 18 -14 21 -14 7z"/>
<path d="M1436 602 c-3 -5 1 -9 9 -9 8 0 12 4 9 9 -3 4 -7 8 -9 8 -2 0 -6 -4
-9 -8z"/>
<path d="M1676 602 c-3 -5 1 -9 9 -9 8 0 12 4 9 9 -3 4 -7 8 -9 8 -2 0 -6 -4
-9 -8z"/>
<path d="M1830 601 c0 -6 4 -13 10 -16 6 -3 7 1 4 9 -7 18 -14 21 -14 7z"/>
<path d="M2630 606 c0 -2 7 -7 16 -10 8 -3 12 -2 9 4 -6 10 -25 14 -25 6z"/>
<path d="M2790 601 c0 -6 4 -13 10 -16 6 -3 7 1 4 9 -7 18 -14 21 -14 7z"/>
<path d="M2876 602 c-3 -5 1 -9 9 -9 8 0 12 4 9 9 -3 4 -7 8 -9 8 -2 0 -6 -4
-9 -8z"/>
<path d="M3116 602 c-3 -5 1 -9 9 -9 8 0 12 4 9 9 -3 4 -7 8 -9 8 -2 0 -6 -4
-9 -8z"/>
<path d="M3270 601 c0 -6 4 -13 10 -16 6 -3 7 1 4 9 -7 18 -14 21 -14 7z"/>
<path d="M3356 602 c-3 -5 1 -9 9 -9 8 0 12 4 9 9 -3 4 -7 8 -9 8 -2 0 -6 -4
-9 -8z"/>
<path d="M3596 602 c-3 -5 1 -9 9 -9 8 0 12 4 9 9 -3 4 -7 8 -9 8 -2 0 -6 -4
-9 -8z"/>
<path d="M3750 601 c0 -6 4 -13 10 -16 6 -3 7 1 4 9 -7 18 -14 21 -14 7z"/>
<path d="M4555 600 c3 -5 8 -10 11 -10 2 0 4 5 4 10 0 6 -5 10 -11 10 -5 0 -7
-4 -4 -10z"/>
<path d="M1035 571 c-3 -5 -2 -12 3 -15 5 -3 9 1 9 9 0 17 -3 19 -12 6z"/>
<path d="M1515 571 c-3 -5 -2 -12 3 -15 5 -3 9 1 9 9 0 17 -3 19 -12 6z"/>
<path d="M2955 571 c-3 -5 -2 -12 3 -15 5 -3 9 1 9 9 0 17 -3 19 -12 6z"/>
<path d="M3435 571 c-3 -5 -2 -12 3 -15 5 -3 9 1 9 9 0 17 -3 19 -12 6z"/>
</g>
</svg>
